<svg id="Discord" xmlns="http://www.w3.org/2000/svg" width="31.111" height="23.714" viewBox="0 0 31.111 23.714">
  <path id="discordpath" fill="#768091" d="M26.337,2.377A25.655,25.655,0,0,0,20,.413a.1.1,0,0,0-.1.048,17.871,17.871,0,0,0-.789,1.62,23.685,23.685,0,0,0-7.112,0,16.391,16.391,0,0,0-.8-1.62.1.1,0,0,0-.1-.048A25.584,25.584,0,0,0,4.766,2.377a.091.091,0,0,0-.042.036,26.257,26.257,0,0,0-4.6,17.708.107.107,0,0,0,.04.073,25.8,25.8,0,0,0,7.769,3.927.1.1,0,0,0,.109-.036A18.439,18.439,0,0,0,9.636,21.5a.1.1,0,0,0-.054-.137,16.99,16.99,0,0,1-2.427-1.157.1.1,0,0,1-.01-.165c.163-.122.326-.249.482-.378a.1.1,0,0,1,.1-.014,18.4,18.4,0,0,0,15.635,0,.1.1,0,0,1,.1.012c.156.128.319.257.483.379a.1.1,0,0,1-.009.165,15.943,15.943,0,0,1-2.428,1.155.1.1,0,0,0-.053.138,20.7,20.7,0,0,0,1.588,2.584.1.1,0,0,0,.109.037,25.713,25.713,0,0,0,7.781-3.927.1.1,0,0,0,.04-.072,26.085,26.085,0,0,0-4.6-17.708A.079.079,0,0,0,26.337,2.377ZM10.4,16.587a2.99,2.99,0,0,1-2.8-3.136,2.974,2.974,0,0,1,2.8-3.136,2.957,2.957,0,0,1,2.8,3.136A2.974,2.974,0,0,1,10.4,16.587Zm10.338,0a2.99,2.99,0,0,1-2.8-3.136,2.974,2.974,0,0,1,2.8-3.136,2.957,2.957,0,0,1,2.8,3.136A2.966,2.966,0,0,1,20.734,16.587Z" transform="translate(0 -0.412)"/>
</svg>
