<svg xmlns="http://www.w3.org/2000/svg" width="48.985" height="38" viewBox="0 0 48.985 38">
  <g id="maestro-svgrepo-com" transform="translate(-0.037 0.007)">
    <path id="Контур_859" data-name="Контур 859" d="M222.456,375.525V373.01a1.5,1.5,0,0,0-1.579-1.6,1.564,1.564,0,0,0-1.411.711,1.469,1.469,0,0,0-1.327-.711,1.328,1.328,0,0,0-1.176.6v-.5h-.874v4.015h.882V373.3a.939.939,0,0,1,.983-1.067c.58,0,.874.378.874,1.058v2.233h.882V373.3a.948.948,0,0,1,.983-1.067c.6,0,.882.378.882,1.058v2.233Zm4.921-2.007v-2.007H226.5V372a1.522,1.522,0,0,0-1.268-.588,2.111,2.111,0,0,0,0,4.217,1.521,1.521,0,0,0,1.268-.588v.487h.874Zm-3.248,0a1.216,1.216,0,1,1,1.218,1.285,1.2,1.2,0,0,1-1.218-1.285Zm21.939-2.112a2.262,2.262,0,0,1,.862.161,2.1,2.1,0,0,1,.685.445,2.031,2.031,0,0,1,.453.669,2.233,2.233,0,0,1,0,1.677,2.031,2.031,0,0,1-.453.669,2.1,2.1,0,0,1-.685.445,2.378,2.378,0,0,1-1.726,0,2.078,2.078,0,0,1-.683-.445,2.052,2.052,0,0,1-.451-.669,2.233,2.233,0,0,1,0-1.677,2.053,2.053,0,0,1,.451-.669,2.079,2.079,0,0,1,.683-.445A2.262,2.262,0,0,1,246.067,371.405Zm0,.826a1.3,1.3,0,0,0-.5.094,1.179,1.179,0,0,0-.4.264,1.231,1.231,0,0,0-.264.406,1.461,1.461,0,0,0,0,1.044,1.229,1.229,0,0,0,.264.406,1.18,1.18,0,0,0,.4.264,1.367,1.367,0,0,0,1,0,1.2,1.2,0,0,0,.4-.264,1.218,1.218,0,0,0,.266-.406,1.46,1.46,0,0,0,0-1.044,1.218,1.218,0,0,0-.266-.406,1.2,1.2,0,0,0-.4-.264,1.3,1.3,0,0,0-.5-.1Zm-13.937,1.286a1.925,1.925,0,0,0-1.906-2.108,2.11,2.11,0,0,0,.059,4.217,2.435,2.435,0,0,0,1.647-.562l-.428-.647a1.912,1.912,0,0,1-1.167.42,1.115,1.115,0,0,1-1.2-.983h2.981C232.12,373.744,232.13,373.636,232.13,373.518Zm-2.99-.352a1.033,1.033,0,0,1,1.067-.975,1,1,0,0,1,1.015.975Zm6.668-.629a2.587,2.587,0,0,0-1.253-.345c-.479,0-.764.177-.764.47,0,.269.3.344.68.395l.411.059c.874.126,1.4.5,1.4,1.2,0,.764-.672,1.311-1.827,1.311a2.9,2.9,0,0,1-1.739-.521l.411-.68a2.139,2.139,0,0,0,1.336.42c.6,0,.914-.177.914-.487,0-.226-.226-.352-.706-.42l-.411-.059c-.9-.126-1.386-.529-1.386-1.185,0-.8.655-1.285,1.671-1.285a3,3,0,0,1,1.637.42Zm4.2-.226h-1.428v1.817c0,.406.143.672.58.672a1.613,1.613,0,0,0,.773-.226l.252.747a2.052,2.052,0,0,1-1.092.311c-1.033,0-1.394-.554-1.394-1.487v-1.827h-.812v-.8h.812V370.3h.882v1.218H240Zm3.023-.9a1.866,1.866,0,0,1,.621.11l-.269.823a1.421,1.421,0,0,0-.546-.1c-.572,0-.857.37-.857,1.033v2.251h-.873v-4.016h.861V372a1.184,1.184,0,0,1,1.058-.588Z" transform="translate(-207.612 -337.64)" fill="#fff"/>
    <g id="_Group_" data-name="&lt;Group&gt;" transform="translate(0.037 -0.007)">
      <rect id="Прямоугольник_63" data-name="Прямоугольник 63" width="13.247" height="23.805" transform="translate(17.867 3.238)" fill="#7673c0"/>
      <path id="_Path_" data-name="&lt;Path&gt;" d="M151.646,63.633a15.113,15.113,0,0,1,5.786-11.9,15.139,15.139,0,1,0,0,23.805A15.113,15.113,0,0,1,151.646,63.633Z" transform="translate(-132.937 -48.493)" fill="#eb001b"/>
      <path id="Контур_860" data-name="Контур 860" d="M398.695,63.645a15.139,15.139,0,0,1-24.495,11.9,15.141,15.141,0,0,0,0-23.805,15.139,15.139,0,0,1,24.495,11.9Z" transform="translate(-349.709 -48.505)" fill="#00a1df"/>
    </g>
  </g>
</svg>
