<svg xmlns="http://www.w3.org/2000/svg" width="48.971" height="38" viewBox="0 0 48.971 38">
  <g id="mastercard_logo" transform="translate(0 0)">
    <path id="Контур_856" data-name="Контур 856" d="M19.383,174.228v-2.522a1.479,1.479,0,0,0-1.6-1.6,1.658,1.658,0,0,0-1.429.715,1.47,1.47,0,0,0-1.345-.715,1.358,1.358,0,0,0-1.177.588v-.5h-.883v4.035h.883V172c0-.715.378-1.051.967-1.051s.883.378.883,1.051v2.228h.883V172a.93.93,0,0,1,.967-1.051c.588,0,.883.378.883,1.051v2.228Zm13.073-4.035H31.027v-1.219h-.883v1.219h-.8v.8h.8v1.85c0,.925.378,1.471,1.387,1.471a2.351,2.351,0,0,0,1.093-.294l-.252-.757a1.383,1.383,0,0,1-.757.21c-.42,0-.588-.252-.588-.673v-1.808h1.429v-.8Zm7.482-.084a1.185,1.185,0,0,0-1.051.588v-.5h-.883v4.035h.883v-2.27c0-.673.294-1.051.841-1.051a2.46,2.46,0,0,1,.546.084l.252-.841a2.775,2.775,0,0,0-.588-.042Zm-11.308.42a2.885,2.885,0,0,0-1.639-.42c-1.009,0-1.681.5-1.681,1.3,0,.673.5,1.051,1.387,1.177l.42.042c.462.084.715.21.715.42,0,.294-.336.5-.925.5a2.32,2.32,0,0,1-1.345-.42l-.42.673a2.972,2.972,0,0,0,1.723.5c1.177,0,1.85-.546,1.85-1.3,0-.715-.546-1.093-1.387-1.219l-.42-.042c-.378-.042-.673-.126-.673-.378,0-.294.294-.462.757-.462a3.031,3.031,0,0,1,1.261.336l.378-.715Zm23.456-.42a1.185,1.185,0,0,0-1.051.588v-.5h-.883v4.035h.883v-2.27c0-.673.294-1.051.841-1.051a2.46,2.46,0,0,1,.546.084l.252-.841a2.775,2.775,0,0,0-.588-.042Zm-11.265,2.1a2.019,2.019,0,0,0,2.144,2.1,2.092,2.092,0,0,0,1.429-.462l-.42-.715a1.7,1.7,0,0,1-1.051.378,1.193,1.193,0,0,1-1.219-1.3,1.24,1.24,0,0,1,1.219-1.3,1.7,1.7,0,0,1,1.051.378l.42-.715a2.092,2.092,0,0,0-1.429-.462,2.019,2.019,0,0,0-2.144,2.1Zm8.155,0v-2.018h-.883v.5a1.519,1.519,0,0,0-1.261-.588,2.1,2.1,0,0,0,0,4.2,1.415,1.415,0,0,0,1.261-.589v.5h.883Zm-3.237,0a1.222,1.222,0,1,1,2.438,0,1.222,1.222,0,1,1-2.438,0Zm-10.551-2.1a2.1,2.1,0,0,0,.042,4.2,2.571,2.571,0,0,0,1.639-.546l-.42-.631a2.009,2.009,0,0,1-1.177.42,1.134,1.134,0,0,1-1.219-.967h2.985v-.336a1.857,1.857,0,0,0-1.85-2.144Zm0,.757a.983.983,0,0,1,1.009.967H34.1a1.064,1.064,0,0,1,1.093-.967Zm21.9,1.345V168.6h-.883v2.1a1.519,1.519,0,0,0-1.261-.588,2.1,2.1,0,0,0,0,4.2,1.415,1.415,0,0,0,1.261-.589v.5h.883Zm-3.237,0a1.222,1.222,0,1,1,2.438,0,1.222,1.222,0,1,1-2.438,0Zm-29.509,0v-2.018h-.883v.5a1.519,1.519,0,0,0-1.261-.588,2.1,2.1,0,0,0,0,4.2,1.415,1.415,0,0,0,1.261-.589v.5h.883Zm-3.279,0a1.222,1.222,0,1,1,2.438,0,1.222,1.222,0,1,1-2.438,0Z" transform="translate(-10.472 -136.312)" fill="#fff"/>
    <rect id="Прямоугольник_62" data-name="Прямоугольник 62" width="13.241" height="23.792" transform="translate(17.865 3.237)" fill="#ff5f00"/>
    <path id="Контур_857" data-name="Контур 857" d="M18.706,15.133a15.173,15.173,0,0,1,5.759-11.9,15.127,15.127,0,1,0-9.332,27.029,15.04,15.04,0,0,0,9.332-3.237A15.11,15.11,0,0,1,18.706,15.133Z" transform="translate(0)" fill="#eb001b"/>
    <path id="Контур_858" data-name="Контур 858" d="M152.448,15.133a15.117,15.117,0,0,1-24.465,11.9,15.166,15.166,0,0,0,0-23.792,15.117,15.117,0,0,1,24.465,11.9Z" transform="translate(-103.476)" fill="#f79e1b"/>
  </g>
</svg>
