<svg id="mir-logo" xmlns="http://www.w3.org/2000/svg" xmlns:xlink="http://www.w3.org/1999/xlink" width="70.655" height="20" viewBox="0 0 70.655 20">
  <defs>
    <linearGradient id="linear-gradient" y1="0.5" x2="1" y2="0.5" gradientUnits="objectBoundingBox">
      <stop offset="0.3" stop-color="#00b4e6"/>
      <stop offset="1" stop-color="#088ccb"/>
    </linearGradient>
  </defs>
  <g id="g5" transform="translate(0 0)">
    <path id="path7" d="M19.039,0V.009a3.69,3.69,0,0,0-3.493,2.62c-.672,2.41-2.568,9.066-2.62,9.249H12.4s-1.939-6.8-2.62-9.258A3.7,3.7,0,0,0,6.288,0H0V20H6.288V8.122h.524L10.48,20h4.367L18.515,8.131h.524V20h6.288V0Z" transform="translate(0 0)" fill="#4db45e" fill-rule="evenodd"/>
  </g>
  <g id="g9" transform="translate(28.035 0)">
    <path id="path11" d="M334.974,0a3.523,3.523,0,0,0-2.707,2.1l-4.454,9.782h-.524V0H321V20h5.939a3.626,3.626,0,0,0,2.795-2.1L334.1,8.122h.524V20h6.288V0Z" transform="translate(-321)" fill="#4db45e" fill-rule="evenodd"/>
  </g>
  <g id="g13" transform="translate(50.742 9.083)">
    <path id="path15" d="M581,104v10.917h6.288v-6.376H594.1A6.8,6.8,0,0,0,600.52,104Z" transform="translate(-581 -104)" fill="#4db45e" fill-rule="evenodd"/>
  </g>
  <g id="g17" transform="translate(49.86 0)">
    <path id="path24" d="M584.883,0H570.9a10.046,10.046,0,0,0,7.249,7.86h0a10.048,10.048,0,0,0,2.629.349h10.777a6.712,6.712,0,0,0,.14-1.4A6.81,6.81,0,0,0,584.883,0Z" transform="translate(-570.9)" fill-rule="evenodd" fill="url(#linear-gradient)"/>
  </g>
</svg>
