<svg xmlns="http://www.w3.org/2000/svg" width="24" height="24" viewBox="0 0 24 24">
  <g id="swipe-to-right-svgrepo-com" transform="translate(-32.593)">
    <path id="Контур_865" data-name="Контур 865" d="M138.467,2.825,136.307.665a.564.564,0,0,0-.8.8l1.145,1.145h-5.4a.564.564,0,0,0,0,1.128h5.507l-1.193,1.193a.564.564,0,1,0,.8.8l2.1-2.1A.564.564,0,0,0,138.467,2.825Z" transform="translate(-82.039 -0.453)" fill="#768091"/>
    <path id="Контур_866" data-name="Контур 866" d="M54.465,9.044a3.777,3.777,0,0,0-1.7-.6,3.114,3.114,0,0,0-2.557-1.291,3.786,3.786,0,0,0-.691.065,3.136,3.136,0,0,0-2.41-1.085h-.053l0-3.463a2.626,2.626,0,0,0-.861-2,2.772,2.772,0,0,0-3.727.1,2.618,2.618,0,0,0-.751,1.9l.006,5,0,3.172A2.868,2.868,0,0,0,40.284,12.6c-.352,1.2-.072,2.739.858,4.714a22.96,22.96,0,0,0,1.7,2.955L43,22.348A1.793,1.793,0,0,0,44.776,24l7.392-.009a1.791,1.791,0,0,0,1.768-1.553l.287-2.186a11.713,11.713,0,0,0,1.9-8.429A3.975,3.975,0,0,0,54.465,9.044ZM53.22,19.727a.661.661,0,0,0-.1.272l-.3,2.292a.64.64,0,0,1-.651.552l-7.39-.011h0a.64.64,0,0,1-.656-.588l-.165-2.19a.639.639,0,0,0-.114-.318c-.676-.983-4.453-6.715-1.395-7.993a.652.652,0,0,0,.4-.6c0-1.561-.008-6.743-.01-8.468a1.542,1.542,0,1,1,3.084,0l0,3.975a.656.656,0,0,0,.759.649,2.711,2.711,0,0,1,.421-.034,2.008,2.008,0,0,1,1.7.873.645.645,0,0,0,.525.264.676.676,0,0,0,.173-.022,2.778,2.778,0,0,1,.7-.1,2,2,0,0,1,1.768,1,.57.57,0,0,0,.462.265,2.63,2.63,0,0,1,2.577,2.465A10.565,10.565,0,0,1,53.22,19.727Z" transform="translate(0 0)" fill="#768091"/>
    <path id="Контур_867" data-name="Контур 867" d="M138.467,2.825,136.307.665a.564.564,0,0,0-.8.8l1.145,1.145h-5.4a.564.564,0,0,0,0,1.128h5.507l-1.193,1.193a.564.564,0,1,0,.8.8l2.1-2.1A.564.564,0,0,0,138.467,2.825Z" transform="translate(171.225 5.939) rotate(180)" fill="#768091"/>
  </g>
</svg>
