<svg id="Tg" xmlns="http://www.w3.org/2000/svg" width="27.753" height="23" viewBox="0 0 27.753 23">
  <path id="telegrampath" fill="#768091" d="M190.908,310.9q11.175-4.869,14.9-6.42c7.1-2.952,8.572-3.465,9.533-3.482a1.681,1.681,0,0,1,.99.3,1.077,1.077,0,0,1,.364.692,4.507,4.507,0,0,1,.043,1.006c-.385,4.041-2.049,13.847-2.9,18.373-.358,1.915-1.064,2.557-1.746,2.62-1.484.137-2.611-.981-4.048-1.923-2.249-1.474-3.52-2.392-5.7-3.831-2.523-1.663-.887-2.577.55-4.07.376-.391,6.915-6.338,7.042-6.878a.522.522,0,0,0-.119-.452.589.589,0,0,0-.529-.051q-.338.077-10.779,7.125a4.853,4.853,0,0,1-2.771,1.024,18.237,18.237,0,0,1-3.973-.94c-1.6-.52-2.872-.8-2.762-1.679Q189.093,311.623,190.908,310.9Z" transform="translate(-189 -301)" fill-rule="evenodd"/>
</svg>
