<svg xmlns="http://www.w3.org/2000/svg" width="61.648" height="20" viewBox="0 0 61.648 20">
  <g id="Сгруппировать_22" data-name="Сгруппировать 22" transform="translate(-41.226 -422.519)">
    <g id="Сгруппировать_21" data-name="Сгруппировать 21" transform="translate(41.226 422.519)">
      <path id="Контур_854" data-name="Контур 854" d="M37.951,71.186h-5.03l3.144-19.321H41.1ZM28.689,51.864l-4.8,13.289-.567-2.862h0L21.634,53.6a2.153,2.153,0,0,0-2.386-1.74H11.319l-.093.327A18.819,18.819,0,0,1,16.488,54.4l4.37,16.786H26.1l8-19.322ZM68.255,71.186h4.619L68.847,51.864H64.8a2.311,2.311,0,0,0-2.322,1.44l-7.5,17.882h5.244l1.049-2.87h6.395ZM62.72,64.351l2.643-7.231,1.487,7.231Zm-7.348-7.84.718-4.149a14.52,14.52,0,0,0-4.524-.842c-2.5,0-8.424,1.091-8.424,6.4,0,4.992,6.958,5.054,6.958,7.676s-6.241,2.152-8.3.5l-.748,4.338a14.1,14.1,0,0,0,5.678,1.091c3.433,0,8.612-1.777,8.612-6.615,0-5.024-7.02-5.491-7.02-7.676s4.9-1.9,7.052-.718Z" transform="translate(-11.226 -51.519)" fill="#2566af"/>
    </g>
    <path id="Контур_855" data-name="Контур 855" d="M23.326,62.615l-1.693-8.689a2.153,2.153,0,0,0-2.386-1.74H11.319l-.093.327a19.49,19.49,0,0,1,7.466,3.749A15.066,15.066,0,0,1,23.326,62.615Z" transform="translate(30 370.678)" fill="#e6a540"/>
  </g>
</svg>
